inDegrees=yes
name=ik_lifting_orientations
DataType=double
version=3
OpenSimVersion=4.5-2024-01-10-34fd6af
endheader
time	pelvis_tilt	pelvis_list	pelvis_rotation	pelvis_tx	pelvis_ty	pelvis_tz	hip_flexion_r	hip_adduction_r	hip_rotation_r	knee_angle_r	knee_angle_r_beta	ankle_angle_r	subtalar_angle_r	mtp_angle_r	hip_flexion_l	hip_adduction_l	hip_rotation_l	knee_angle_l	knee_angle_l_beta	ankle_angle_l	subtalar_angle_l	mtp_angle_l	lumbar_extension	lumbar_bending	lumbar_rotation	arm_flex_r	arm_add_r	arm_rot_r	elbow_flex_r	pro_sup_r	wrist_flex_r	wrist_dev_r	arm_flex_l	arm_add_l	arm_rot_l	elbow_flex_l	pro_sup_l	wrist_flex_l	wrist_dev_l
0.02	0.004670237331840338	0.002152175264846501	-90.03366417294873	0	0.9399999998679526	0	44.84003165185696	-13.66198891121015	0	60.39796509806953	1.054143352465933	-6.77887020123871	0	0	44.84003165185696	-13.66198891121015	0	60.39796509806953	1.054143352465933	-6.77887020123871	0	0	0.006426277593615456	-0.003799813565253372	-0.006389059021321854	-0.2396028280109786	-0.04887695128058168	0.007219898108153278	0.48701788251783	3.035198102666349	0	0	0	-8.235849797307429	0	87.03450494350234	3.035198102666349	0	0
0.03	0.04918784891718183	-0.04493441062511154	-89.89355705594571	0	0.9399999998679526	0	44.84840024691151	-13.0729325865568	0	60.38149286306431	1.05385585772993	-6.425874753599885	0	0	44.84840024691151	-13.0729325865568	0	60.38149286306431	1.05385585772993	-6.425874753599885	0	0	-0.04619019154621615	-0.04950279456260385	-0.07855803272567183	-0.2147722124165064	-0.0738258559665511	-0.09367637047396747	0.5276481394987248	2.922798350734386	0	0	0	-8.422449408577608	0	87.14431227533352	2.922798350734386	0	0
0.04	0.1020614634843358	-0.1666026367773167	-89.77781727408224	0	0.9399999998679526	0	44.85647715407195	-12.56820024395806	0	60.36541833814243	1.053575304344349	-6.136326751270019	0	0	44.85647715407195	-12.56820024395806	0	60.36541833814243	1.053575304344349	-6.136326751270019	0	0	-0.1711203002891985	-0.1023873155090198	-0.1252878824244228	-0.2159047155795794	-0.0665852117680148	-0.1579625466143583	0.5223831609098266	2.812635302644254	0	0	0	-8.607042157532428	0	87.25193500264682	2.812635302644254	0	0
0.05	0.07754760122361821	-0.1523686273276232	-89.95863994549153	0	0.9399999998679526	0	44.85932272770573	-12.41470901076405	0	60.35967371616612	1.05347504177658	-6.052775350324354	0	0	44.85932272770573	-12.41470901076405	0	60.35967371616612	1.05347504177658	-6.052775350324354	0	0	-0.1363174896176367	-0.08787377770798711	0.04435750921389854	-0.345894016532378	-0.07165668095984193	-0.109156404171191	0.6706836684422616	2.773051467117054	0	0	0	-8.674169982474622	0	87.29060627103983	2.773051467117054	0	0
0.06	0.08521048702920811	-0.2422550976098174	-89.94212623813148	0	0.9399999998679526	0	44.86246169210516	-12.24740899394752	0	60.3533301782165	1.053364326153134	-5.962197709550969	0	0	44.86246169210516	-12.24740899394752	0	60.3533301782165	1.053364326153134	-5.962197709550969	0	0	-0.2636278001069941	-0.1150317653653637	0.04451080405533978	-0.2517668434047344	-0.02230571834110481	-0.1107427685790372	0.5596283665830039	2.729325124364046	0	0	0	-8.748384458364665	0	87.33332455746753	2.729325124364046	0	0
0.07000000000000001	0.1003596043015155	-0.2513748980541826	-89.95335699602597	0	0.9399999998679526	0	44.86816400849901	-11.95937025686666	0	60.34175004900744	1.053162214770629	-5.809362028201394	0	0	44.86816400849901	-11.95937025686666	0	60.34175004900744	1.053162214770629	-5.809362028201394	0	0	-0.2361939188621957	-0.1149766023357135	0.05063504164940961	-0.541006843943735	-0.1316266288366694	-0.06792186512354483	1.074476209539691	2.64933095044635	0	0	0	-8.884731216854247	0	87.4114747073811	2.64933095044635	0	0
0.08	0.08945713782936951	-0.3035010051373489	-89.90142215469736	0	0.9399999998679526	0	44.87469805366789	-11.66493455522339	0	60.32833462425976	1.052928071438229	-5.659655357242509	0	0	44.87469805366789	-11.66493455522339	0	60.32833462425976	1.052928071438229	-5.659655357242509	0	0	-0.3114427954335084	-0.1025567766650571	0.04728122175383576	-0.3130858223138098	-0.08421433278463024	-0.144138275543035	0.6601939366314722	2.556278260650681	0	0	0	-9.044789941340426	0	87.50238268853714	2.556278260650681	0	0
0.09	0.04070703636565229	-0.2511020963266885	-90.14810471628618	0	0.9399999998679526	0	44.87472395634162	-11.6637527837194	0	60.3282805624692	1.052927127881984	-5.659047663445787	0	0	44.87472395634162	-11.6637527837194	0	60.3282805624692	1.052927127881984	-5.659047663445787	0	0	-0.2098082299477159	-0.08619752333411181	0.2344371617759814	-0.3054396711214954	-0.04872038179816309	-0.07679925757701112	0.5461745887085122	2.555908160420673	0	0	0	-9.045428983029119	0	87.50274425869641	2.555908160420673	0	0
0.1	0.04433950532126092	-0.2636966910732733	-90.2940107249958	0	0.9399999998679526	0	44.87994968870218	-11.45048892023017	0	60.31744983191179	1.052738095973361	-5.554483091941101	0	0	44.87994968870218	-11.45048892023017	0	60.31744983191179	1.052738095973361	-5.554483091941101	0	0	-0.2101547168021095	-0.06998667529763292	0.452113123622182	-0.3720683649250737	-0.06107673563394803	-0.1851829051090098	0.6624997660815082	2.480490193731831	0	0	0	-9.176207660642039	0	87.57642419658343	2.480490193731831	0	0
0.11	0.06109107046367759	-0.2632513768621338	-90.08670150392805	0	0.9399999998679526	0	44.8849811544321	-11.26419455895679	0	60.30692443160007	1.052554393082831	-5.466403307730554	0	0	44.8849811544321	-11.26419455895679	0	60.30692443160007	1.052554393082831	-5.466403307730554	0	0	-0.2147420987346589	-0.09932923801196662	0.2490526500731756	-0.3835587037766504	-0.007015779823172573	-0.2063082136267714	0.6887462908224119	2.406928932420276	0	0	0	-9.304773554777592	0	87.64829041988956	2.406928932420276	0	0
0.12	0.07440963795217187	-0.2405060587859306	-90.15064602884593	0	0.9399999998679526	0	44.88794435932859	-11.16526537116308	0	60.30066254357997	1.052445102519489	-5.421350061098592	0	0	44.88794435932859	-11.16526537116308	0	60.30066254357997	1.052445102519489	-5.421350061098592	0	0	-0.1897662660159971	-0.1085019731411483	0.3718977285887468	-0.3423580699784486	-0.001124819695138934	-0.2621534779625473	0.5661276329717386	2.36298762302533	0	0	0	-9.382239193286004	0	87.6912193384577	2.36298762302533	0	0
0.13	0.09409338446690023	-0.2888598047217612	-89.73410562547943	0	0.9399999998679526	0	44.88796517358725	-11.16452242596648	0	60.30061807647338	1.05244432642207	-5.421001126605204	0	0	44.88796517358725	-11.16452242596648	0	60.30061807647338	1.05244432642207	-5.421001126605204	0	0	-0.2758799319518609	-0.08524248388106048	0.08755631193322785	-0.3307240879567663	-0.04245428071260069	-0.3959239432591904	0.5858643334302639	2.362680289374701	0	0	0	-9.382780555935152	0	87.69151959085521	2.362680289374701	0	0
0.14	0.09181055216426937	-0.3608506054657261	-89.84078065613922	0	0.9399999998679526	0	44.89139081625709	-11.05717848349487	0	60.2933337140182	1.052317190313319	-5.373239210474576	0	0	44.89139081625709	-11.05717848349487	0	60.2933337140182	1.052317190313319	-5.373239210474576	0	0	-0.3589196842870906	-0.08114272223010059	0.1815821630675955	-0.3131689157735443	-0.03465532070857356	-0.347879541954022	0.5914775132755209	2.311440251042618	0	0	0	-9.473591383224349	0	87.74157916006703	2.311440251042618	0	0
0.15	0.1056614137911357	-0.3356261462068898	-89.96789134202093	0	0.9399999998679526	0	44.89376450273927	-10.98526037632273	0	60.28826920490246	1.052228797954252	-5.341621477354919	0	0	44.89376450273927	-10.98526037632273	0	60.28826920490246	1.052228797954252	-5.341621477354919	0	0	-0.3201419251028476	-0.09694689542259957	0.2471404196207364	-0.5852613538617596	-0.08359853389672671	-0.2955579250985416	1.035838025374704	2.275767776380009	0	0	0	-9.536994572323819	0	87.77642984014823	2.275767776380009	0	0
0.16	0.09200661731565961	-0.3396522808002258	-90.08729574345814	0	0.9399999998679526	0	44.89379058456144	-10.98441998738605	0	60.28821342368394	1.052227824388328	-5.341242068421963	0	0	44.89379058456144	-10.98441998738605	0	60.28821342368394	1.052227824388328	-5.341242068421963	0	0	-0.2817947385242892	-0.1194887404362525	0.3083538909652311	-0.3893034886317076	-0.0002593680204180468	-0.2663032115521691	0.5565894990253393	2.275378096449284	0	0	0	-9.537685310313377	0	87.77681054243216	2.275378096449284	0	0
